<?xml version="1.0" standalone="no"?>
<!DOCTYPE svg PUBLIC "-//W3C//DTD SVG 20010904//EN"
 "http://www.w3.org/TR/2001/REC-SVG-20010904/DTD/svg10.dtd">
<svg version="1.0" xmlns="http://www.w3.org/2000/svg"
 width="980.000000pt" height="980.000000pt" viewBox="0 0 980.000000 980.000000"
 preserveAspectRatio="xMidYMid meet">
<metadata>
Created by potrace 1.14, written by Peter Selinger 2001-2017
</metadata>
<g transform="translate(0.000000,980.000000) scale(0.100000,-0.100000)"
fill="#000000" stroke="none">
<path d="M4633 9790 c-706 -42 -1351 -217 -1968 -534 -1140 -586 -1999 -1584
-2406 -2796 -462 -1377 -292 -2884 464 -4117 741 -1207 1974 -2041 3362 -2272
620 -103 1272 -86 1884 50 607 135 1202 396 1721 755 1008 698 1722 1760 1990
2958 131 586 150 1231 55 1840 -125 801 -466 1586 -968 2231 -790 1014 -1968
1690 -3222 1849 -291 37 -655 51 -912 36z m309 -1979 l3 -640 75 46 c41 25
181 110 310 188 129 78 340 206 469 284 129 78 240 140 247 137 8 -3 34 -36
58 -74 96 -150 175 -351 212 -542 28 -144 25 -428 -5 -570 -74 -339 -235 -619
-481 -837 -229 -202 -495 -324 -794 -364 l-96 -13 0 -241 0 -240 53 -29 c28
-16 123 -71 209 -123 87 -51 162 -93 166 -93 5 0 23 21 42 46 218 304 545 510
935 590 125 26 394 26 520 1 507 -103 909 -425 1108 -890 102 -237 143 -543
107 -807 -10 -76 -37 -200 -45 -208 -5 -5 -175 98 -175 106 0 4 7 43 15 87 16
91 19 328 5 425 -24 164 -107 379 -202 522 -212 316 -546 523 -921 569 -109
14 -302 6 -402 -16 -233 -50 -443 -160 -614 -321 -82 -77 -181 -193 -181 -212
0 -6 26 -25 58 -43 31 -18 116 -67 187 -110 135 -80 445 -262 935 -549 157
-92 413 -242 570 -335 157 -92 337 -198 400 -235 183 -105 230 -134 230 -142
0 -12 -94 -168 -102 -168 -4 0 -134 75 -290 166 -798 469 -876 514 -883 514
-7 0 1 -802 11 -1156 l5 -191 -35 -6 c-41 -7 -237 7 -314 22 -411 81 -772 334
-998 701 -92 149 -171 362 -198 536 -20 130 -21 364 -1 492 17 105 62 262 101
349 13 31 24 61 24 68 0 6 -37 33 -82 59 -46 26 -99 57 -118 68 -178 105 -219
128 -228 128 -9 0 -378 -214 -395 -230 -5 -4 6 -41 23 -81 147 -339 162 -734
43 -1100 -24 -76 -130 -287 -178 -355 -178 -256 -409 -444 -677 -553 -84 -34
-134 -49 -318 -92 -36 -9 -120 -13 -240 -13 -151 1 -203 5 -284 23 -206 45
-383 120 -548 233 -98 67 -261 215 -253 229 3 4 44 31 90 59 l85 51 63 -56
c338 -308 821 -407 1262 -259 230 77 459 245 614 451 66 87 150 252 190 371
77 230 84 512 20 747 -24 88 -79 225 -90 225 -9 0 -272 -153 -834 -485 -203
-120 -433 -255 -510 -300 -77 -45 -302 -178 -500 -295 -198 -117 -385 -227
-415 -245 -30 -18 -72 -42 -92 -54 l-36 -22 -30 43 c-42 61 -74 128 -69 142 3
6 58 43 123 80 66 38 151 88 189 112 39 23 216 127 395 232 179 104 342 200
363 212 31 19 36 25 25 35 -7 7 -202 133 -433 280 -345 221 -609 392 -635 412
-8 7 41 92 99 172 180 253 428 442 716 546 174 63 276 80 495 79 161 0 212 -3
295 -21 263 -57 486 -170 693 -353 79 -70 203 -208 231 -258 7 -12 46 8 212
106 l204 120 3 239 2 239 -102 17 c-548 88 -984 450 -1183 980 -72 192 -106
443 -86 635 16 148 35 244 73 356 108 326 317 600 603 793 130 88 408 205 448
190 14 -5 17 -22 17 -100 0 -64 -4 -98 -12 -104 -7 -5 -42 -20 -78 -32 -301
-106 -578 -363 -721 -668 -60 -128 -94 -252 -114 -418 -16 -128 -15 -169 6
-325 63 -451 365 -842 784 -1015 82 -34 200 -69 270 -79 22 -4 52 -9 68 -12
l27 -6 0 1400 c0 769 3 1402 7 1405 3 4 51 7 105 7 l98 0 2 -639z"/>
<path d="M5935 7502 c-22 -14 -175 -108 -340 -208 -165 -100 -380 -230 -477
-289 l-178 -108 0 -629 c0 -525 2 -628 14 -628 7 0 53 7 102 15 298 51 578
212 772 444 287 343 379 813 242 1241 -24 75 -77 190 -87 189 -4 0 -26 -12
-48 -27z"/>
<path d="M2955 5140 c-224 -27 -417 -102 -598 -231 -81 -58 -221 -188 -258
-241 l-20 -27 93 -60 c51 -32 145 -93 208 -134 63 -41 249 -160 413 -266 l299
-192 121 71 c67 39 192 112 278 163 86 50 265 155 397 232 133 77 241 145 242
150 0 19 -155 189 -226 247 -226 184 -475 280 -759 292 -66 2 -151 1 -190 -4z"/>
<path d="M5437 4373 c-26 -51 -75 -207 -93 -293 -23 -116 -24 -355 0 -465 68
-318 202 -556 421 -747 108 -96 234 -175 352 -224 96 -40 314 -97 325 -86 4 4
3 291 -3 637 -7 473 -13 633 -22 641 -6 6 -70 45 -142 86 -145 84 -542 316
-708 414 -60 35 -110 64 -113 64 -2 0 -10 -12 -17 -27z"/>
</g>
</svg>
